<svg width="48" height="56" viewBox="0 0 48 56" fill="none" xmlns="http://www.w3.org/2000/svg">
  <!-- Shield shape -->
  <path d="M24 0C24 0 0 6 0 14V32C0 44 10 54 24 56C38 54 48 44 48 32V14C48 6 24 0 24 0Z" fill="#0A4D4A"/>
  
  <!-- Inner shield border -->
  <path d="M24 4C24 4 4 9 4 16V31C4 41 12 49 24 51C36 49 44 41 44 31V16C44 9 24 4 24 4Z" fill="none" stroke="#2CA58D" stroke-width="2"/>
  
  <!-- Code bracket left -->
  <path d="M15 20L10 28L15 36" stroke="#F8F9FA" stroke-width="3" stroke-linecap="round" stroke-linejoin="round"/>
  
  <!-- Check mark -->
  <path d="M18 28L22 32L30 22" stroke="#2CA58D" stroke-width="3" stroke-linecap="round" stroke-linejoin="round"/>
  
  <!-- Code bracket right -->
  <path d="M33 20L38 28L33 36" stroke="#F8F9FA" stroke-width="3" stroke-linecap="round" stroke-linejoin="round"/>
</svg>